<svg xmlns="http://www.w3.org/2000/svg" xmlns:xlink="http://www.w3.org/1999/xlink" width="70" zoomAndPan="magnify" viewBox="0 0 52.5 52.499999" height="70" preserveAspectRatio="xMidYMid meet" version="1.0"><defs><clipPath id="00425e9a49"><path d="M 21 44 L 31 44 L 31 47.605469 L 21 47.605469 Z M 21 44 " clip-rule="nonzero"/></clipPath><clipPath id="dee04972cd"><path d="M 25 4.855469 L 27 4.855469 L 27 10 L 25 10 Z M 25 4.855469 " clip-rule="nonzero"/></clipPath><clipPath id="9f4e413d80"><path d="M 43 26 L 47.835938 26 L 47.835938 28 L 43 28 Z M 43 26 " clip-rule="nonzero"/></clipPath><clipPath id="9ee4418b8f"><path d="M 4.335938 26 L 9 26 L 9 28 L 4.335938 28 Z M 4.335938 26 " clip-rule="nonzero"/></clipPath></defs><path fill="#ffbb00" d="M 26.085938 14.703125 C 28.910156 14.703125 31.464844 15.855469 33.316406 17.71875 C 35.167969 19.582031 36.3125 22.15625 36.3125 25 C 36.3125 28.433594 35.28125 29.699219 34.1875 31.046875 C 33.257812 32.191406 32.273438 33.40625 32.035156 36.574219 L 26.765625 36.574219 L 26.765625 30.46875 L 30.929688 26.277344 C 31.191406 26.011719 31.191406 25.578125 30.929688 25.308594 C 30.664062 25.042969 30.230469 25.042969 29.964844 25.308594 L 26.085938 29.21875 L 22.203125 25.308594 C 21.9375 25.042969 21.507812 25.042969 21.242188 25.308594 C 20.976562 25.578125 20.976562 26.011719 21.242188 26.277344 L 25.40625 30.46875 L 25.40625 36.574219 L 20.136719 36.574219 C 19.898438 33.40625 18.914062 32.191406 17.980469 31.046875 C 16.886719 29.699219 15.859375 28.433594 15.859375 25 C 15.859375 22.15625 17.003906 19.582031 18.851562 17.71875 C 20.703125 15.855469 23.261719 14.703125 26.085938 14.703125 Z M 26.085938 14.703125 " fill-opacity="1" fill-rule="nonzero"/><path fill="#cadfdf" d="M 19.949219 37.429688 L 32.21875 37.429688 C 32.59375 37.429688 32.898438 37.738281 32.898438 38.113281 L 32.898438 40.726562 C 32.898438 41.101562 32.59375 41.410156 32.21875 41.410156 L 19.949219 41.410156 C 19.574219 41.410156 19.269531 41.101562 19.269531 40.726562 L 19.269531 38.113281 C 19.269531 37.738281 19.574219 37.429688 19.949219 37.429688 Z M 19.949219 37.429688 " fill-opacity="1" fill-rule="nonzero"/><path fill="#cadfdf" d="M 32.078125 42.265625 L 32.078125 43.335938 C 32.078125 43.714844 31.773438 44.019531 31.398438 44.019531 L 20.835938 44.019531 C 20.460938 44.019531 20.15625 43.714844 20.15625 43.335938 L 20.15625 42.265625 Z M 32.078125 42.265625 " fill-opacity="1" fill-rule="nonzero"/><g clip-path="url(#00425e9a49)"><path fill="#cadfdf" d="M 30.441406 44.875 C 30.007812 46.0625 29.066406 46.867188 27.949219 47.28125 C 27.367188 47.5 26.742188 47.605469 26.117188 47.605469 C 25.492188 47.605469 24.867188 47.5 24.285156 47.28125 C 23.167969 46.867188 22.226562 46.0625 21.792969 44.875 Z M 30.441406 44.875 " fill-opacity="1" fill-rule="nonzero"/></g><g clip-path="url(#dee04972cd)"><path fill="#ffbb00" d="M 26.765625 5.539062 C 26.765625 5.160156 26.460938 4.851562 26.085938 4.851562 C 25.710938 4.851562 25.40625 5.160156 25.40625 5.539062 L 25.40625 8.578125 C 25.40625 8.957031 25.710938 9.261719 26.085938 9.261719 C 26.460938 9.261719 26.765625 8.957031 26.765625 8.578125 Z M 26.765625 5.539062 " fill-opacity="1" fill-rule="nonzero"/></g><path fill="#ffbb00" d="M 37.207031 8.71875 C 37.390625 8.394531 37.28125 7.976562 36.957031 7.789062 C 36.632812 7.601562 36.21875 7.714844 36.03125 8.039062 L 34.523438 10.671875 C 34.335938 11 34.449219 11.414062 34.773438 11.601562 C 35.097656 11.789062 35.511719 11.675781 35.695312 11.351562 Z M 37.207031 8.71875 " fill-opacity="1" fill-rule="nonzero"/><path fill="#ffbb00" d="M 44.667969 16.734375 C 44.992188 16.546875 45.105469 16.128906 44.917969 15.804688 C 44.734375 15.476562 44.320312 15.367188 43.996094 15.554688 L 41.378906 17.074219 C 41.054688 17.261719 40.945312 17.675781 41.128906 18.003906 C 41.316406 18.328125 41.730469 18.441406 42.054688 18.253906 Z M 44.667969 16.734375 " fill-opacity="1" fill-rule="nonzero"/><g clip-path="url(#9f4e413d80)"><path fill="#ffbb00" d="M 47.15625 27.433594 C 47.53125 27.433594 47.835938 27.128906 47.835938 26.75 C 47.835938 26.371094 47.53125 26.066406 47.15625 26.066406 L 44.136719 26.066406 C 43.761719 26.066406 43.457031 26.371094 43.457031 26.75 C 43.457031 27.128906 43.761719 27.433594 44.136719 27.433594 Z M 47.15625 27.433594 " fill-opacity="1" fill-rule="nonzero"/></g><path fill="#ffbb00" d="M 43.996094 37.945312 C 44.320312 38.132812 44.734375 38.019531 44.917969 37.695312 C 45.105469 37.367188 44.992188 36.953125 44.667969 36.765625 L 42.054688 35.246094 C 41.730469 35.058594 41.316406 35.171875 41.128906 35.496094 C 40.945312 35.824219 41.054688 36.238281 41.378906 36.425781 Z M 43.996094 37.945312 " fill-opacity="1" fill-rule="nonzero"/><path fill="#ffbb00" d="M 7.5 36.765625 C 7.175781 36.953125 7.0625 37.367188 7.25 37.695312 C 7.4375 38.019531 7.851562 38.132812 8.175781 37.945312 L 10.789062 36.425781 C 11.113281 36.238281 11.226562 35.824219 11.039062 35.496094 C 10.851562 35.171875 10.4375 35.058594 10.113281 35.246094 Z M 7.5 36.765625 " fill-opacity="1" fill-rule="nonzero"/><g clip-path="url(#9ee4418b8f)"><path fill="#ffbb00" d="M 5.015625 26.066406 C 4.636719 26.066406 4.335938 26.371094 4.335938 26.75 C 4.335938 27.128906 4.636719 27.433594 5.015625 27.433594 L 8.035156 27.433594 C 8.410156 27.433594 8.714844 27.128906 8.714844 26.75 C 8.714844 26.371094 8.410156 26.066406 8.035156 26.066406 Z M 5.015625 26.066406 " fill-opacity="1" fill-rule="nonzero"/></g><path fill="#ffbb00" d="M 8.175781 15.554688 C 7.851562 15.367188 7.4375 15.476562 7.25 15.804688 C 7.0625 16.128906 7.175781 16.546875 7.5 16.734375 L 10.113281 18.253906 C 10.4375 18.441406 10.851562 18.328125 11.039062 18.003906 C 11.226562 17.675781 11.113281 17.261719 10.789062 17.074219 Z M 8.175781 15.554688 " fill-opacity="1" fill-rule="nonzero"/><path fill="#ffbb00" d="M 16.136719 8.039062 C 15.949219 7.714844 15.535156 7.601562 15.210938 7.789062 C 14.886719 7.976562 14.777344 8.394531 14.960938 8.71875 L 16.472656 11.351562 C 16.660156 11.675781 17.070312 11.789062 17.394531 11.601562 C 17.71875 11.414062 17.832031 11 17.644531 10.671875 Z M 16.136719 8.039062 " fill-opacity="1" fill-rule="nonzero"/></svg>