<svg xmlns="http://www.w3.org/2000/svg" xmlns:xlink="http://www.w3.org/1999/xlink" width="70" zoomAndPan="magnify" viewBox="0 0 52.5 52.499999" height="70" preserveAspectRatio="xMidYMid meet" version="1.0"><defs><clipPath id="480824cf0c"><path d="M 16 7.496094 L 36 7.496094 L 36 29 L 16 29 Z M 16 7.496094 " clip-rule="nonzero"/></clipPath><clipPath id="28f49d3a4f"><path d="M 13.078125 22.976562 L 39.324219 22.976562 L 39.324219 44.996094 L 13.078125 44.996094 Z M 13.078125 22.976562 " clip-rule="nonzero"/></clipPath></defs><g clip-path="url(#480824cf0c)"><path fill="#bbd4e8" d="M 26.203125 7.496094 C 20.839844 7.496094 16.496094 11.859375 16.496094 17.238281 L 16.496094 28.382812 L 20.398438 28.382812 L 20.398438 17.238281 C 20.398438 14.027344 23 11.414062 26.203125 11.414062 C 29.402344 11.414062 32.003906 14.027344 32.003906 17.238281 L 32.003906 28.382812 L 35.90625 28.382812 L 35.90625 17.238281 C 35.90625 11.859375 31.5625 7.496094 26.203125 7.496094 " fill-opacity="1" fill-rule="nonzero"/></g><g clip-path="url(#28f49d3a4f)"><path fill="#f8b133" d="M 37.265625 22.988281 L 15.136719 22.988281 C 14 22.988281 13.078125 23.914062 13.078125 25.054688 L 13.078125 42.933594 C 13.078125 44.074219 14 45 15.136719 45 L 37.265625 45 C 38.402344 45 39.324219 44.074219 39.324219 42.933594 L 39.324219 25.054688 C 39.324219 23.914062 38.402344 22.988281 37.265625 22.988281 " fill-opacity="1" fill-rule="nonzero"/></g><path fill="#2c3d50" d="M 28.773438 31.921875 C 28.722656 30.617188 27.683594 29.542969 26.386719 29.449219 C 26.324219 29.445312 26.261719 29.445312 26.203125 29.445312 C 26.140625 29.445312 26.078125 29.445312 26.019531 29.449219 C 24.71875 29.542969 23.679688 30.617188 23.628906 31.921875 C 23.589844 32.972656 24.171875 33.886719 25.035156 34.328125 L 24.160156 38.539062 L 28.246094 38.539062 L 27.367188 34.328125 C 28.230469 33.886719 28.8125 32.972656 28.773438 31.921875 " fill-opacity="1" fill-rule="nonzero"/></svg>